<svg width="130" height="337" viewBox="0 0 130 337" fill="none" xmlns="http://www.w3.org/2000/svg">
<path d="M11.6879 18.5824C21.0344 7.25451 44.6677 -10.1621 64.4288 10.7945C84.19 31.751 57.5302 70.9738 41.7302 87.9656C33.9414 92.6855 17.6963 100.709 15.0259 95.0455C11.6879 87.9656 9.68503 73.0978 37.0569 60.3539C54.6373 52.802 92.6019 44.7781 103.818 73.0978C108.936 85.3696 109.826 113.878 72.4401 129.737L25.7076 150.269M25.7076 150.269C7.90475 150.982 -17.6869 142.494 22.3696 102.833C35.0541 96.6975 65.7641 84.284 87.1276 83.7176C99.367 86.3136 122.911 99.1518 119.173 129.737C119.618 135.873 111.295 151.118 74.443 163.013C65.9867 164.901 47.0711 168.818 39.0598 169.385L10.3527 173.633L25.7076 150.269ZM25.7076 150.269C37.3894 146.965 64.9597 141.348 81.7867 145.313C102.821 150.269 111.161 146.021 127.852 173.633C130.745 187.792 128.653 216.82 97.1417 219.652C65.6306 222.484 45.2908 217.056 39.0598 213.988V187.792M39.0598 187.792C61.981 189.916 111.161 188.359 124.514 165.137C130.967 148.617 131.457 114.869 81.7867 112.037C69.7698 112.509 44.1337 114.02 37.7246 116.285L39.0598 166.553C62.4261 168.677 111.562 178.73 121.176 201.952C126.294 215.404 127.985 243.724 93.8036 249.388C81.1191 249.86 52.412 248.113 39.0598 237.352M39.0598 187.792V237.352M39.0598 187.792C53.5247 191.332 85.3918 201.103 97.1417 211.864C111.384 223.664 132.258 252.928 101.815 275.583C92.2458 279.123 66.8322 281.955 41.7302 264.963M39.0598 237.352L41.7302 264.963M39.0598 237.352C55.0824 248.68 87.7952 276.15 90.4656 295.407C91.5783 307.207 88.5964 331.798 67.767 335.763C62.4261 336.707 49.2075 336.612 39.0598 328.683L41.7302 264.963" stroke="url(#paint0_linear_1_270)" stroke-width="1.33012"/>
<defs>
<linearGradient id="paint0_linear_1_270" x1="65.1591" y1="-204.325" x2="174.447" y2="-194.52" gradientUnits="userSpaceOnUse">
<stop stop-color="#0D70BC"/>
<stop offset="1" stop-color="#88E2E8"/>
</linearGradient>
</defs>
</svg>
